<svg id="visual" viewBox="0 0 900 600" width="900" height="600" xmlns="http://www.w3.org/2000/svg" xmlns:xlink="http://www.w3.org/1999/xlink" version="1.1"><rect x="0" y="0" width="900" height="600" fill="#001220"></rect><defs><linearGradient id="grad1_0" x1="33.3%" y1="0%" x2="100%" y2="100%"><stop offset="20%" stop-color="#001220" stop-opacity="1"></stop><stop offset="80%" stop-color="#001220" stop-opacity="1"></stop></linearGradient></defs><defs><linearGradient id="grad2_0" x1="0%" y1="0%" x2="66.7%" y2="100%"><stop offset="20%" stop-color="#001220" stop-opacity="1"></stop><stop offset="80%" stop-color="#001220" stop-opacity="1"></stop></linearGradient></defs><g transform="translate(900, 0)"><path d="M0 486.7C-59.3 463.2 -118.7 439.6 -170.7 412.1C-222.7 384.5 -267.3 352.9 -316.8 316.8C-366.3 280.6 -420.6 239.8 -449.7 186.3C-478.8 132.7 -482.8 66.4 -486.7 0L0 0Z" fill="#FBAE3C"></path></g><g transform="translate(0, 600)"><path d="M0 -486.7C43.4 -435 86.7 -383.2 152.7 -368.6C218.7 -354 307.2 -376.5 344.2 -344.2C381.1 -311.8 366.4 -224.6 381.6 -158C396.7 -91.5 441.7 -45.8 486.7 0L0 0Z" fill="#FBAE3C"></path></g></svg>